<?xml version="1.0" encoding="utf-8"?>
<!-- Generator: Adobe Illustrator 21.1.0, SVG Export Plug-In . SVG Version: 6.00 Build 0)  -->
<svg version="1.1" id="Layer_1" xmlns="http://www.w3.org/2000/svg" xmlns:xlink="http://www.w3.org/1999/xlink" x="0px" y="0px"
	 viewBox="0 0 69.9 75" style="enable-background:new 0 0 69.9 75;" xml:space="preserve">
<style type="text/css">
	.st0{fill:#5CC5C8;}
	.st1{fill:#DBD93D;}
	.st2{fill:#576572;}
	.st3{fill:#FFFFFF;}
	.st4{fill-rule:evenodd;clip-rule:evenodd;fill:#FFFFFF;}
	.st5{fill-rule:evenodd;clip-rule:evenodd;fill:#576572;}
	.st6{fill:#747474;}
	.st7{fill:#BFBFBF;}
	.st8{fill:none;stroke:#BFBFBF;stroke-width:1.3;stroke-miterlimit:10;}
</style>
<path class="st2" d="M18.1,32c0,0-0.7-3.7,3.2-5.8c0,0,7.7-4.8,6.5-9.3c0,0,0.2-2.4-3.3-7.8c0,0-4.8-9.3-9.4-9c0,0-5.4-0.2-12.7,12
	c0,0-5.6,10.7,0.4,23.8c0,0,7.8,19.2,29.4,34.1c0,0,12.6,8.5,25.6,3.4c0,0,14.6-7.7,11.8-12.6c0,0-1.2-3.9-6.7-7.8
	c0,0-8.8-9.1-13.8-3.2c0,0-5.8,6.2-7.4,5.8c0,0-3.9,2.1-12-6.1C29.7,49.4,18.9,39.3,18.1,32z"/>
</svg>
