<?xml version="1.0" encoding="utf-8"?>
<!-- Generator: Adobe Illustrator 21.1.0, SVG Export Plug-In . SVG Version: 6.00 Build 0)  -->
<svg version="1.1" id="Layer_1" xmlns="http://www.w3.org/2000/svg" xmlns:xlink="http://www.w3.org/1999/xlink" x="0px" y="0px"
	 viewBox="0 0 25 22.1" style="enable-background:new 0 0 25 22.1;" xml:space="preserve">
<style type="text/css">
	.st0{fill:#5CC5C8;}
	.st1{fill:#DBD93D;}
	.st2{fill:#576572;}
	.st3{fill:#FFFFFF;}
	.st4{fill-rule:evenodd;clip-rule:evenodd;fill:#FFFFFF;}
	.st5{fill-rule:evenodd;clip-rule:evenodd;fill:#576572;}
	.st6{fill:#747474;}
	.st7{fill:#BFBFBF;}
	.st8{fill:none;stroke:#BFBFBF;stroke-width:1.3;stroke-miterlimit:10;}
</style>
<g>
	<path class="st2" d="M24,17.7l-4.1-3.3c0.5-1.2,0.8-2.6,0.8-4.1C20.8,4.6,16.1,0,10.4,0S0,4.6,0,10.4c0,5.7,4.6,10.4,10.4,10.4
		c2.5,0,4.8-0.9,6.6-2.4l4,3.2c1.1,0.8,2.6,0.7,3.5-0.4C25.3,20.1,25.1,18.6,24,17.7z M10.4,16.1c-3.2,0-5.8-2.6-5.8-5.8
		c0-3.2,2.6-5.8,5.8-5.8s5.8,2.6,5.8,5.8c0,0.3,0,0.6-0.1,1c-0.3,1.7-1.3,3.2-2.8,4C12.4,15.9,11.4,16.1,10.4,16.1z"/>
</g>
</svg>
