<?xml version="1.0" encoding="utf-8"?>
<!-- Generator: Adobe Illustrator 21.1.0, SVG Export Plug-In . SVG Version: 6.00 Build 0)  -->
<svg version="1.1" id="Layer_1" xmlns="http://www.w3.org/2000/svg" xmlns:xlink="http://www.w3.org/1999/xlink" x="0px" y="0px"
	 viewBox="0 0 83.2 70.1" style="enable-background:new 0 0 83.2 70.1;" xml:space="preserve">
<style type="text/css">
	.st0{fill:#5CC5C8;}
	.st1{fill:#DBD93D;}
	.st2{fill:#576572;}
	.st3{fill:#FFFFFF;}
	.st4{fill-rule:evenodd;clip-rule:evenodd;fill:#FFFFFF;}
	.st5{fill-rule:evenodd;clip-rule:evenodd;fill:#576572;}
	.st6{fill:#747474;}
	.st7{fill:#BFBFBF;}
	.st8{fill:none;stroke:#BFBFBF;stroke-width:1.3;stroke-miterlimit:10;}
</style>
<g>
	<g>
		<path class="st7" d="M12.9,49.9h1.8c1.7,0,2.7,0.8,2.7,2.1c0,0.9-0.6,1.5-1.3,1.7v0c1.3,0.1,1.9,1,1.9,2.1c0,1.5-1.2,2.3-2.7,2.3
			h-2.4V49.9z M14.7,50.8h-0.8v2.6h0.9c1,0,1.6-0.5,1.6-1.3C16.3,51.2,15.6,50.8,14.7,50.8z M15.1,54.3h-1.3v2.9h1.4
			c1.1,0,1.6-0.6,1.6-1.4C16.9,54.8,16.3,54.3,15.1,54.3z"/>
		<path class="st7" d="M23.3,49.6c2.7,0,4.3,2.1,4.3,4.4c0,2.4-1.9,4.4-4.3,4.4c-3,0-4.3-2.3-4.3-4.4C18.9,51.6,20.8,49.6,23.3,49.6
			z M23.3,57.4c1.9,0,3.3-1.5,3.3-3.5c0-2-1.3-3.5-3.3-3.5C21.4,50.5,20,52,20,54C20,56,21.4,57.4,23.3,57.4z"/>
		<path class="st7" d="M29.6,56.1c0.1,0.8,0.8,1.3,1.6,1.3c0.9,0,1.6-0.7,1.6-1.6c0-0.9-0.6-1.6-1.7-1.6h-0.9v-0.9h0.9
			c0.9,0,1.4-0.6,1.4-1.4c0-0.7-0.5-1.3-1.3-1.3c-0.7,0-1.2,0.3-1.2,1h-1c0.1-1.2,1.1-1.9,2.3-1.9c1.4,0,2.3,0.9,2.3,2.2
			c0,0.8-0.4,1.4-1.2,1.8v0c0.9,0.3,1.5,1.2,1.5,2.1c0,1.4-1.1,2.5-2.6,2.5c-1.5,0-2.6-0.9-2.7-2.2H29.6z"/>
		<path class="st7" d="M35.3,49.9h2.4c1.8,0,3,0.8,3,2.5c0,1.6-0.9,2.5-3.1,2.5h-1.3v3.1h-1V49.9z M37.8,50.8h-1.5v3.3h1.4
			c1.5,0,1.9-0.7,1.9-1.6C39.7,51.5,39.1,50.8,37.8,50.8z"/>
		<path class="st7" d="M43.7,49.9h0.9l3.2,8.2h-1.1l-0.8-2.2h-3.6l-0.9,2.2h-1.1L43.7,49.9z M42.6,55h3l-0.9-2.3
			c-0.2-0.4-0.4-1.2-0.6-1.7h0c-0.2,0.5-0.4,1.2-0.6,1.7L42.6,55z"/>
		<path class="st7" d="M56,52h-1.1c-0.4-0.8-1.3-1.5-2.6-1.5c-1.6,0-3.2,1.2-3.2,3.5c0,2,1.3,3.5,3.2,3.5c1.3,0,2.3-0.7,2.7-1.6h1.1
			c-0.7,1.5-1.9,2.5-3.9,2.5c-2.5,0-4.2-1.9-4.2-4.4c0-2.5,1.8-4.3,4.2-4.3C54.5,49.6,55.6,50.9,56,52z"/>
		<path class="st7" d="M59,50.8h-2.1v-0.9h5.3v0.9H60v7.3h-1V50.8z"/>
		<path class="st7" d="M20.1,70.1h-1l-0.5-4.8c-0.1-0.6-0.1-1.6-0.2-2.2h0c-0.2,0.6-0.5,1.5-0.7,2.2l-1.6,4.8h-0.9l-1.6-4.9
			c-0.2-0.6-0.5-1.4-0.7-2.1h0c0,0.7-0.1,1.4-0.2,2l-0.5,4.9h-1l0.9-8.2h1.2l1.8,5.3c0.1,0.4,0.3,1.1,0.4,1.5h0
			c0.1-0.4,0.3-1.1,0.5-1.5l1.8-5.3h1.2L20.1,70.1z"/>
		<path class="st7" d="M24,61.9h0.9l3.2,8.2h-1.1l-0.8-2.2h-3.6l-0.9,2.2h-1.1L24,61.9z M22.9,67h3L25,64.7
			c-0.2-0.4-0.4-1.2-0.6-1.7h0c-0.2,0.5-0.4,1.2-0.6,1.7L22.9,67z"/>
		<path class="st7" d="M30.6,68.3c-0.1,1.3-0.6,1.8-1.6,1.8c-0.3,0-0.5-0.1-0.6-0.1v-0.9c0.1,0,0.3,0.1,0.5,0.1c0.4,0,0.7-0.2,0.7-1
			l0.5-6.4h5.2v8.2h-1v-7.3H31L30.6,68.3z"/>
		<path class="st7" d="M37,61.9h1v3.5h1.4c1.5,0,2.7,0.8,2.7,2.3c0,1.5-1.2,2.4-2.7,2.4H37V61.9z M39.3,66.3H38v2.9h1.4
			c1.1,0,1.6-0.6,1.6-1.5C41.1,66.8,40.4,66.3,39.3,66.3z M43.2,61.9h1v8.2h-1V61.9z"/>
		<path class="st7" d="M46,61.9h1v7.3h3v-7.3h1v7.3h3v-7.3h1v8.2H46V61.9z"/>
		<path class="st7" d="M59.2,61.9h0.9l3.2,8.2h-1.1l-0.8-2.2h-3.6l-0.9,2.2h-1.1L59.2,61.9z M58.1,67h3l-0.9-2.3
			c-0.2-0.4-0.4-1.2-0.6-1.7h0c-0.2,0.5-0.4,1.2-0.6,1.7L58.1,67z"/>
	</g>
</g>
<g>
	<g>
		<path class="st7" d="M13.2,0C19.1,0,26,4.4,26,18.8c0,16.1-8,19.8-13.1,19.8C7,38.6,0,34.2,0,18.6C0,5,6.7,0,13.2,0z M12.9,2.1
			C7.4,2.1,2.5,6.7,2.5,18.5c0,12.8,4.2,18,10.5,18c5.4,0,10.5-4.7,10.5-17.5C23.5,7.8,19.6,2.1,12.9,2.1z"/>
		<path class="st7" d="M27.9,24.4v-2.1h17.1v2.1H27.9z"/>
		<path class="st7" d="M66.7,28.4v8.9h-2.4v-8.9H46.1v-2L65,1.2h1.7v25h5.5v2.2H66.7z M49,26.2h15.4V9.4c0-2.1,0-2.5,0.1-4h-0.2
			c-0.7,1.2-0.8,1.6-2.4,3.8L49,26.2z"/>
	</g>
</g>
<g>
	<g>
		<path class="st7" d="M78.5,30.2h4.6v0.9h-3.6v7.3h-1V30.2z"/>
	</g>
</g>
</svg>
