<?xml version="1.0" encoding="utf-8"?>
<!-- Generator: Adobe Illustrator 21.1.0, SVG Export Plug-In . SVG Version: 6.00 Build 0)  -->
<svg version="1.1" id="Layer_1" xmlns="http://www.w3.org/2000/svg" xmlns:xlink="http://www.w3.org/1999/xlink" x="0px" y="0px"
	 viewBox="0 0 75.3 57.3" style="enable-background:new 0 0 75.3 57.3;" xml:space="preserve">
<style type="text/css">
	.st0{fill:#5CC5C8;}
	.st1{fill:#DBD93D;}
	.st2{fill:#576572;}
	.st3{fill:#FFFFFF;}
	.st4{fill-rule:evenodd;clip-rule:evenodd;fill:#FFFFFF;}
	.st5{fill-rule:evenodd;clip-rule:evenodd;fill:#576572;}
	.st6{fill:#747474;}
	.st7{fill:#BFBFBF;}
	.st8{fill:none;stroke:#BFBFBF;stroke-width:1.3;stroke-miterlimit:10;}
</style>
<g>
	<path class="st7" d="M42.3,9.4l2.7-8.3c0,0-1.5,0.8-4.1,0.3c0,0-0.9-0.3-1.9-1c0,0-1.1-1-2.9,0c0,0-1.5,0.7-2.9,0.6
		c0,0-2-0.2-3.2-1.1l3.5,9.4C33.4,9.4,38.7,11.1,42.3,9.4z"/>
	<path class="st7" d="M39.1,20.9h-1.2v3.5H39c1.6,0,2-0.9,2-1.7C41,21.7,40.5,20.9,39.1,20.9z"/>
	<path class="st7" d="M42.7,11.1c-4.9,2.4-9.9,0-9.9,0c-11.8,10.5-6.9,19.5-6.9,19.5c4.5,7.3,12.3,6.6,12.3,6.6
		c8.9,0,11.6-7.1,11.6-7.1C53.5,20.4,42.7,11.1,42.7,11.1z M39.1,26.3h-1.2v0.9h1v1.9h-1v1.2h-2.4v-1.2h-1.1v-1.9h1.1V19h3.6
		c2.4,0,4.3,1.1,4.3,3.6C43.4,24.9,42,26.3,39.1,26.3z"/>
</g>
<g>
	<path class="st7" d="M8.1,53c0,2.5-1.7,4.4-4.2,4.4c-2,0-3.2-1-3.9-2.5h1.1c0.4,1,1.4,1.6,2.7,1.6c1.8,0,3.1-1.4,3.2-3.2H2.5v-0.9
		H7c-0.2-1.9-1.7-2.9-3.1-2.9c-1.3,0-2.2,0.6-2.6,1.5H0.1c0.4-1,1.5-2.4,3.8-2.4C6.3,48.6,8.1,50.5,8.1,53z"/>
	<path class="st7" d="M10.4,53v4.1h-1v-8.2h1V53l3.9-4.1h1.3l-4,4l4.2,4.2h-1.4L10.4,53z"/>
	<path class="st7" d="M20.2,48.6c2.7,0,4.3,2.1,4.3,4.4c0,2.4-1.9,4.4-4.3,4.4c-3,0-4.3-2.3-4.3-4.4C15.8,50.6,17.6,48.6,20.2,48.6z
		 M20.1,56.5c1.9,0,3.3-1.5,3.3-3.5c0-2-1.3-3.5-3.3-3.5c-1.9,0-3.3,1.5-3.3,3.5C16.8,55,18.3,56.5,20.1,56.5z"/>
	<path class="st7" d="M31.3,53.3h-4.5v3.8h-1v-8.2h1v3.5h4.5v-3.5h1v8.2h-1V53.3z"/>
	<path class="st7" d="M38,48.6c2.7,0,4.3,2.1,4.3,4.4c0,2.4-1.9,4.4-4.3,4.4c-3,0-4.3-2.3-4.3-4.4C33.7,50.6,35.5,48.6,38,48.6z
		 M38,56.5c1.9,0,3.3-1.5,3.3-3.5c0-2-1.3-3.5-3.3-3.5c-1.9,0-3.3,1.5-3.3,3.5C34.7,55,36.1,56.5,38,56.5z"/>
	<path class="st7" d="M52.1,57.1h-1l-0.5-4.8c-0.1-0.6-0.1-1.6-0.2-2.2h0c-0.2,0.6-0.5,1.5-0.7,2.2l-1.6,4.8h-0.9l-1.6-4.9
		c-0.2-0.6-0.5-1.4-0.7-2.1h0c0,0.7-0.1,1.4-0.2,2l-0.5,4.9h-1l0.9-8.2h1.2l1.8,5.3c0.1,0.4,0.3,1.1,0.4,1.5h0
		c0.1-0.4,0.3-1.1,0.5-1.5l1.8-5.3h1.2L52.1,57.1z"/>
	<path class="st7" d="M59,53.3h-4.5v3.8h-1v-8.2h1v3.5H59v-3.5h1v8.2h-1V53.3z"/>
	<path class="st7" d="M61.7,48.9h1v3.5h1.4c1.5,0,2.7,0.8,2.7,2.3c0,1.5-1.2,2.4-2.7,2.4h-2.4V48.9z M64,53.3h-1.3v2.9h1.4
		c1.1,0,1.6-0.6,1.6-1.5C65.8,53.8,65.1,53.3,64,53.3z M67.9,48.9h1v8.2h-1V48.9z"/>
	<path class="st7" d="M75.2,49.8h-3.5v2.6h3.4v0.9h-3.4v2.9h3.6v0.9h-4.6v-8.2h4.5V49.8z"/>
</g>
</svg>
