<?xml version="1.0" encoding="utf-8"?>
<!-- Generator: Adobe Illustrator 21.1.0, SVG Export Plug-In . SVG Version: 6.00 Build 0)  -->
<svg version="1.1" id="Layer_1" xmlns="http://www.w3.org/2000/svg" xmlns:xlink="http://www.w3.org/1999/xlink" x="0px" y="0px"
	 viewBox="0 0 105.1 60" style="enable-background:new 0 0 105.1 60;" xml:space="preserve">
<style type="text/css">
	.st0{fill:#5CC5C8;}
	.st1{fill:#DBD93D;}
	.st2{fill:#576572;}
	.st3{fill:#FFFFFF;}
	.st4{fill-rule:evenodd;clip-rule:evenodd;fill:#FFFFFF;}
	.st5{fill-rule:evenodd;clip-rule:evenodd;fill:#576572;}
	.st6{fill:#747474;}
	.st7{fill:#BFBFBF;}
	.st8{fill:none;stroke:#BFBFBF;stroke-width:1.3;stroke-miterlimit:10;}
</style>
<g>
	<path class="st2" d="M6,12h93.1c3.3,0,6-2.7,6-6c0-3.3-2.7-6-6-6H6C2.7,0,0,2.7,0,6C0,9.3,2.7,12,6,12z"/>
	<path class="st2" d="M99.1,24H6c-3.3,0-6,2.7-6,6c0,3.3,2.7,6,6,6h93.1c3.3,0,6-2.7,6-6C105.1,26.7,102.4,24,99.1,24z"/>
	<path class="st2" d="M99.1,48H6c-3.3,0-6,2.7-6,6c0,3.3,2.7,6,6,6h93.1c3.3,0,6-2.7,6-6C105.1,50.7,102.4,48,99.1,48z"/>
</g>
</svg>
