<?xml version="1.0" encoding="utf-8"?>
<!-- Generator: Adobe Illustrator 21.1.0, SVG Export Plug-In . SVG Version: 6.00 Build 0)  -->
<svg version="1.1" id="Layer_1" xmlns="http://www.w3.org/2000/svg" xmlns:xlink="http://www.w3.org/1999/xlink" x="0px" y="0px"
	 viewBox="0 0 58.9 71.2" style="enable-background:new 0 0 58.9 71.2;" xml:space="preserve">
<style type="text/css">
	.st0{fill:#5CC5C8;}
	.st1{fill:#DBD93D;}
	.st2{fill:#576572;}
	.st3{fill:#FFFFFF;}
	.st4{fill-rule:evenodd;clip-rule:evenodd;fill:#FFFFFF;}
	.st5{fill-rule:evenodd;clip-rule:evenodd;fill:#576572;}
	.st6{fill:#747474;}
	.st7{fill:#BFBFBF;}
	.st8{fill:none;stroke:#BFBFBF;stroke-width:1.3;stroke-miterlimit:10;}
</style>
<g>
	<path class="st7" d="M28.6,12.9c-4.2,0-7.5,2-9.8,5.3c-1.9,2.9-2.4,7.7-2.4,7.7s2.2-1.6,3.9-1.8c3.1-0.3,4.9,1.4,4.9,1.4
		s1.3-1.1,2.7-1.7c-0.1,2.3-0.1,9.9,0.1,11.6c0.2,1.8,2.3,2.1,3.1,1.5c0.3-0.2,0.9-0.7,1.1-1.7c0.2-0.7-0.8-1.1-1.2-0.1
		c-0.2,0.4-0.3,1.1-1.2,0.8c-0.9-0.3-0.8-2.8-0.8-6.2c0-3,0-5.3,0-6.3c0.1,0,0.1,0,0.2,0c2.2-0.1,4.2,2.6,4.2,2.6s0.9-2.9,3.2-2.5
		c2.1,0.4,4.1,2.2,4,1.9c-0.1-0.3-0.5-4.3-2.3-7.2C36.7,15.8,32.5,12.9,28.6,12.9z"/>
	<path class="st7" d="M19.3,12.7C20,11.8,18.5,9,18.5,9s-3.3-3.8-3-0.5S18.6,13.6,19.3,12.7z"/>
	<path class="st7" d="M24.8,5.2c1.5,0.9,1.7-0.6,1.2-1.5c-0.5-0.9-1.2-2.2-1.2-2.2s-1.5-2.3-2.3-1.2C21.7,1.5,23.3,4.4,24.8,5.2z"/>
	<path class="st7" d="M36.2,8.5c-0.4-1.4-1.6-3.9-2.5-3.7c-0.2,0.1-2,1.3-0.8,3.2C34.2,9.8,36.6,10,36.2,8.5z"/>
	<path class="st7" d="M43.7,12.9c0,0-2-1.6-2.4,0.2C40.9,15,42.1,17.8,44,18C45.8,18.2,44.9,14.9,43.7,12.9z"/>
</g>
<g>
	<path class="st7" d="M17.7,51h-1.1c-0.4-0.8-1.3-1.5-2.6-1.5c-1.6,0-3.2,1.2-3.2,3.5c0,2,1.3,3.5,3.2,3.5c1.3,0,2.3-0.7,2.7-1.6
		h1.1c-0.7,1.5-1.9,2.5-3.9,2.5c-2.5,0-4.2-1.9-4.2-4.4c0-2.5,1.8-4.3,4.2-4.3C16.2,48.6,17.2,50,17.7,51z"/>
	<path class="st7" d="M22.2,55.6c-0.5,1.2-1.1,1.5-1.8,1.5c-0.3,0-0.4,0-0.5-0.1v-0.8c0.1,0,0.3,0,0.4,0c0.4,0,0.7-0.1,1-0.8
		l0.4-0.9l-3-5.7h1.1l2,3.9c0.1,0.2,0.2,0.5,0.3,0.8h0c0.1-0.3,0.2-0.6,0.3-0.8l1.6-3.9h1L22.2,55.6z"/>
	<path class="st7" d="M28,51.1c0.2,0.3,0.4,0.6,0.6,0.9h0c0.2-0.3,0.4-0.6,0.6-1l1.4-2.2h1.1l-2.6,3.9l2.7,4.3h-1.2l-1.5-2.4
		c-0.2-0.4-0.4-0.7-0.7-1.1h0c-0.2,0.4-0.5,0.7-0.7,1.1l-1.4,2.3h-1.1l2.7-4.2l-2.6-4h1.2L28,51.1z"/>
	<path class="st7" d="M33.8,48.9v4.9c0,0.4,0,1.3,0,1.7h0c0.3-0.5,0.8-1.3,1.7-2.7l2.6-3.9h0.9v8.2h-1v-4.9c0-0.4,0-1.3,0-1.7h0
		c-0.3,0.5-0.6,1-1.7,2.7l-2.6,3.9h-0.9v-8.2H33.8z"/>
	<path class="st7" d="M45.3,49.8h-3.5v2.6h3.4v0.9h-3.4v2.9h3.6v0.9h-4.6v-8.2h4.5V49.8z"/>
	<path class="st7" d="M5.5,65.3H1v3.8H0v-8.2h1v3.5h4.5v-3.5h1v8.2h-1V65.3z"/>
	<path class="st7" d="M10.8,60.9h0.9l3.2,8.2h-1.1L13,66.9H9.4l-0.9,2.2H7.5L10.8,60.9z M9.7,66h3l-0.9-2.3
		c-0.2-0.4-0.4-1.2-0.6-1.7h0c-0.2,0.5-0.4,1.2-0.6,1.7L9.7,66z"/>
	<path class="st7" d="M22.8,60.6c2.7,0,4.3,2.1,4.3,4.4c0,2.4-1.9,4.4-4.3,4.4c-3,0-4.3-2.3-4.3-4.4C18.5,62.6,20.3,60.6,22.8,60.6z
		 M22.8,68.5c1.9,0,3.3-1.5,3.3-3.5c0-2-1.3-3.5-3.3-3.5c-1.9,0-3.3,1.5-3.3,3.5C19.5,67,20.9,68.5,22.8,68.5z"/>
	<path class="st7" d="M28.5,69.1v-8.2h1v7.3h3v-7.3h1v7.3h3v-7.3h1v7.3h1v3h-1v-2.1H28.5z"/>
	<path class="st7" d="M42.3,67.6c-0.5,1.2-1.1,1.5-1.8,1.5c-0.3,0-0.4,0-0.5-0.1v-0.8c0.1,0,0.3,0,0.4,0c0.4,0,0.7-0.1,1-0.8
		l0.4-0.9l-3-5.7h1.1l2,3.9c0.1,0.2,0.2,0.5,0.3,0.8h0c0.1-0.3,0.2-0.6,0.3-0.8l1.6-3.9h1L42.3,67.6z"/>
	<path class="st7" d="M51.1,61.8h-3.9v7.3h-1v-8.2h5.9v8.2h-1V61.8z"/>
	<path class="st7" d="M53.8,60.9h1v3.5h1.4c1.5,0,2.7,0.8,2.7,2.3c0,1.5-1.2,2.4-2.7,2.4h-2.4V60.9z M56.1,65.3h-1.3v2.9h1.4
		c1.1,0,1.6-0.6,1.6-1.5C57.9,65.8,57.2,65.3,56.1,65.3z"/>
</g>
</svg>
