<?xml version="1.0" encoding="utf-8"?>
<!-- Generator: Adobe Illustrator 21.1.0, SVG Export Plug-In . SVG Version: 6.00 Build 0)  -->
<svg version="1.1" id="Layer_1" xmlns="http://www.w3.org/2000/svg" xmlns:xlink="http://www.w3.org/1999/xlink" x="0px" y="0px"
	 viewBox="0 0 77.3 73.6" style="enable-background:new 0 0 77.3 73.6;" xml:space="preserve">
<style type="text/css">
	.st0{fill:#5CC5C8;}
	.st1{fill:#DBD93D;}
	.st2{fill:#576572;}
	.st3{fill:#FFFFFF;}
	.st4{fill-rule:evenodd;clip-rule:evenodd;fill:#FFFFFF;}
	.st5{fill-rule:evenodd;clip-rule:evenodd;fill:#576572;}
	.st6{fill:#747474;}
	.st7{fill:#BFBFBF;}
	.st8{fill:none;stroke:#BFBFBF;stroke-width:1.3;stroke-miterlimit:10;}
</style>
<g>
	<path class="st2" d="M36.5,2.3c1.2-3.1,3.1-3.1,4.2,0L47.4,20c1.2,3.1,4.8,5.7,8.1,5.9l18.8,0.9c3.3,0.2,3.9,2,1.3,4L61,42.5
		c-2.6,2.1-4,6.4-3.1,9.5l5,18.2c0.9,3.2-0.7,4.3-3.4,2.5L43.7,62.4c-2.8-1.8-7.3-1.8-10,0L17.9,72.8c-2.8,1.8-4.3,0.7-3.4-2.5
		l5-18.2c0.9-3.2-0.5-7.5-3.1-9.5L1.6,30.8c-2.6-2.1-2-3.9,1.3-4l18.8-0.9c3.3-0.2,6.9-2.8,8.1-5.9L36.5,2.3z"/>
</g>
</svg>
