<?xml version="1.0" encoding="utf-8"?>
<!-- Generator: Adobe Illustrator 21.1.0, SVG Export Plug-In . SVG Version: 6.00 Build 0)  -->
<svg version="1.1" id="Layer_1" xmlns="http://www.w3.org/2000/svg" xmlns:xlink="http://www.w3.org/1999/xlink" x="0px" y="0px"
	 viewBox="0 0 20.6 44.1" style="enable-background:new 0 0 20.6 44.1;" xml:space="preserve">
<style type="text/css">
	.st0{fill:#5CC5C8;}
	.st1{fill:#DBD93D;}
	.st2{fill:#576572;}
	.st3{fill:#FFFFFF;}
	.st4{fill-rule:evenodd;clip-rule:evenodd;fill:#FFFFFF;}
	.st5{fill-rule:evenodd;clip-rule:evenodd;fill:#576572;}
	.st6{fill:#747474;}
	.st7{fill:#BFBFBF;}
	.st8{fill:none;stroke:#BFBFBF;stroke-width:1.3;stroke-miterlimit:10;}
</style>
<g>
	<path class="st4" d="M4.6,33c0-3.5,0-6.9,0-10.4c0-0.6-0.2-0.8-0.7-0.7c-1.1,0-2.2,0-3.2,0C0.2,22,0,21.8,0,21.4c0-2.2,0-4.3,0-6.5
		c0-0.4,0.1-0.5,0.5-0.5c1.1,0,2.2,0,3.3,0c0.6,0,0.8-0.2,0.8-0.8c0-1.6,0-3.3,0-4.9c0-2,0.6-3.9,1.8-5.5c1.5-2.1,3.7-3,6.1-3.1
		C15,0,17.6,0,20.1,0c0.4,0,0.5,0.1,0.5,0.5c0,2.2,0,4.4,0,6.5c0,0.4-0.1,0.5-0.5,0.5c-1.2,0-2.4,0-3.7,0c-1.6,0-2.6,0.8-2.7,2.5
		c-0.1,1.3,0,2.6-0.1,3.9c0,0.5,0.3,0.4,0.6,0.4c1.9,0,3.7,0,5.6,0c0.5,0,0.7,0.1,0.7,0.7c-0.2,2.2-0.4,4.3-0.6,6.5
		c0,0.5-0.3,0.6-0.7,0.6c-1.5,0-2.9,0-4.4,0c-1.1,0-1-0.2-1,0.9c0,6.8,0,13.5,0,20.3c0,0.7-0.2,0.9-0.9,0.9c-2.5,0-5,0-7.6,0
		c-0.7,0-0.8-0.2-0.8-0.9C4.6,39.8,4.6,36.4,4.6,33z"/>
</g>
</svg>
