<?xml version="1.0" encoding="utf-8"?>
<!-- Generator: Adobe Illustrator 21.1.0, SVG Export Plug-In . SVG Version: 6.00 Build 0)  -->
<svg version="1.1" id="Layer_1" xmlns="http://www.w3.org/2000/svg" xmlns:xlink="http://www.w3.org/1999/xlink" x="0px" y="0px"
	 viewBox="0 0 34.4 34.4" style="enable-background:new 0 0 34.4 34.4;" xml:space="preserve">
<style type="text/css">
	.st0{fill:#5CC5C8;}
	.st1{fill:#DBD93D;}
	.st2{fill:#576572;}
	.st3{fill:#FFFFFF;}
	.st4{fill-rule:evenodd;clip-rule:evenodd;fill:#FFFFFF;}
	.st5{fill-rule:evenodd;clip-rule:evenodd;fill:#576572;}
	.st6{fill:#747474;}
	.st7{fill:#BFBFBF;}
	.st8{fill:none;stroke:#BFBFBF;stroke-width:1.3;stroke-miterlimit:10;}
</style>
<g>
	<path class="st2" d="M4.1,34.4h26.2c2.3,0,4.1-1.8,4.1-4.1V4.1c0-2.3-1.8-4.1-4.1-4.1H4.1C1.8,0,0,1.8,0,4.1v26.2
		C0,32.6,1.8,34.4,4.1,34.4z M23.9,4.9c0-0.5,0.4-1,1-1h4.7c0.5,0,1,0.4,1,1v4.6c0,0.5-0.4,1-1,1h-4.7c-0.5,0-1-0.4-1-1V4.9z
		 M17.2,10.6c3.7,0,6.6,3,6.6,6.6c0,3.6-3,6.6-6.6,6.6c-3.7,0-6.6-3-6.6-6.6C10.6,13.6,13.6,10.6,17.2,10.6z M3.9,14.5h3.2
		c-0.2,0.9-0.4,1.8-0.4,2.8c0,5.8,4.7,10.4,10.5,10.4c5.8,0,10.5-4.7,10.5-10.4c0-1-0.1-1.9-0.4-2.8h3.2v15c0,0.5-0.4,1-1,1H4.9
		c-0.5,0-1-0.4-1-1V14.5z"/>
</g>
</svg>
