<?xml version="1.0" encoding="utf-8"?>
<!-- Generator: Adobe Illustrator 21.1.0, SVG Export Plug-In . SVG Version: 6.00 Build 0)  -->
<svg version="1.1" id="Layer_1" xmlns="http://www.w3.org/2000/svg" xmlns:xlink="http://www.w3.org/1999/xlink" x="0px" y="0px"
	 viewBox="0 0 60.6 59.4" style="enable-background:new 0 0 60.6 59.4;" xml:space="preserve">
<style type="text/css">
	.st0{fill:#5CC5C8;}
	.st1{fill:#DBD93D;}
	.st2{fill:#576572;}
	.st3{fill:#FFFFFF;}
	.st4{fill-rule:evenodd;clip-rule:evenodd;fill:#FFFFFF;}
	.st5{fill-rule:evenodd;clip-rule:evenodd;fill:#576572;}
	.st6{fill:#747474;}
	.st7{fill:#BFBFBF;}
	.st8{fill:none;stroke:#BFBFBF;stroke-width:1.3;stroke-miterlimit:10;}
</style>
<g>
	<path class="st7" d="M0,56.4h0.2c0.6,0,1.5-0.5,1.6-2.6l0.3-4.7h5.2v7.3h1v3h-1v-2.1H1v2.1H0V56.4z M6.3,50.1H3.1l-0.3,3.8
		c-0.1,1.2-0.4,2.1-0.9,2.6h4.4V50.1z"/>
	<path class="st7" d="M9.6,49.1h1v3.5h1.4c1.5,0,2.7,0.8,2.7,2.3c0,1.5-1.2,2.4-2.7,2.4H9.6V49.1z M11.8,53.6h-1.3v2.9H12
		c1.1,0,1.6-0.6,1.6-1.5C13.6,54.1,13,53.6,11.8,53.6z M15.8,49.1h1v8.2h-1V49.1z"/>
	<path class="st7" d="M18.5,49.1h1v7.3h3v-7.3h1v7.3h3v-7.3h1v8.2h-8.9V49.1z"/>
	<path class="st7" d="M31.7,49.1h0.9l3.2,8.2h-1.1l-0.8-2.2h-3.6l-0.9,2.2h-1.1L31.7,49.1z M30.6,54.2h3l-0.9-2.3
		c-0.2-0.4-0.4-1.2-0.6-1.7h0c-0.2,0.5-0.4,1.2-0.6,1.7L30.6,54.2z"/>
	<path class="st7" d="M36.8,57.3v-8.2h1v7.3h3v-7.3h1v7.3h3v-7.3h1v7.3h1v3h-1v-2.1H36.8z"/>
	<path class="st7" d="M49,49.1V54c0,0.4,0,1.3,0,1.7h0c0.3-0.5,0.8-1.3,1.7-2.7l2.6-3.9h0.9v8.2h-1v-4.9c0-0.4,0-1.3,0-1.7h0
		c-0.3,0.5-0.6,1-1.7,2.7l-2.6,3.9H48v-8.2H49z"/>
	<path class="st7" d="M60.5,50.1H57v2.6h3.4v0.9H57v2.9h3.6v0.9H56v-8.2h4.5V50.1z"/>
</g>
<g>
	<path class="st8" d="M19.7,0c0,3.8-4,3.8-4,7.5c0,3.8,4,3.8,4,7.5c0,3.8-4,3.8-4,7.5c0,3.8,4,3.8,4,7.5s-4,3.8-4,7.5"/>
</g>
<g>
	<path class="st8" d="M28.1,0c0,3.8-4,3.8-4,7.5c0,3.8,4,3.8,4,7.5c0,3.8-4,3.8-4,7.5c0,3.8,4,3.8,4,7.5s-4,3.8-4,7.5"/>
</g>
<g>
	<path class="st8" d="M37.1,0.1c0,3.7-4,3.7-4,7.5c0,3.7,4,3.7,4,7.5c0,3.7-4,3.7-4,7.5c0,3.7,4,3.7,4,7.5s-4,3.7-4,7.5"/>
</g>
<g>
	<path class="st8" d="M45.4,0.1c0,3.7-4,3.7-4,7.5c0,3.7,4,3.7,4,7.5c0,3.7-4,3.7-4,7.5c0,3.7,4,3.7,4,7.5s-4,3.7-4,7.5"/>
</g>
</svg>
