<?xml version="1.0" encoding="utf-8"?>
<!-- Generator: Adobe Illustrator 21.1.0, SVG Export Plug-In . SVG Version: 6.00 Build 0)  -->
<svg version="1.1" id="Layer_1" xmlns="http://www.w3.org/2000/svg" xmlns:xlink="http://www.w3.org/1999/xlink" x="0px" y="0px"
	 viewBox="0 0 167.7 122" style="enable-background:new 0 0 167.7 122;" xml:space="preserve">
<style type="text/css">
	.st0{fill:#5CC5C8;}
	.st1{fill:#DBD93D;}
	.st2{fill:#576572;}
	.st3{fill:#FFFFFF;}
	.st4{fill-rule:evenodd;clip-rule:evenodd;fill:#FFFFFF;}
	.st5{fill-rule:evenodd;clip-rule:evenodd;fill:#576572;}
	.st6{fill:#747474;}
	.st7{fill:#BFBFBF;}
	.st8{fill:none;stroke:#BFBFBF;stroke-width:1.3;stroke-miterlimit:10;}
</style>
<g>
	<path class="st2" d="M32.9,88.2c0,0,0.5-6.9-0.2-8.9c-0.4-1.1-5.5-1.2-5.9,0.9c-0.4,2.1-0.9,27.5-0.7,33.4c0.2,5.9-0.6,7.5,2,7.6
		s4.1,0.4,4.4-2C32.8,116.7,32.9,88.2,32.9,88.2z"/>
	<path class="st2" d="M161.1,98.6c0,0.9,0.4,2.6,2.5,2.8c2.9,0.4,4.4-0.2,4-3.8c-0.5-3.6-3.1-11.3-12-10.5c-8.9,0.8-10.9,9-8,15.4
		c2.8,6.4,11.3,6.3,12.1,9.7c0.9,3.3-1.9,3.9-3.5,3.7c-2.3-0.2-3-1.7-3.2-3.5c-0.2-1.8-0.2-3.3-2.7-3.1c-2.6,0.2-5.3-0.4-2.5,7.1
		c2.7,7.4,14.6,6.5,17.2,2.8c2.6-3.8,2.8-10-0.6-12.9c-3-2.6-9.9-3.4-10.6-6.3c-0.8-3,0-7,4.1-6.2C161.3,94.3,161.1,96.7,161.1,98.6
		z"/>
	<path class="st2" d="M61.2,48.4c0,0,0.8-9,4.4-14.4c4.1-6.1,10.3-9.9,18.2-9.9c7.4,0,15.2,5.5,18.3,10.3c3.4,5.3,4.1,12.9,4.2,13.3
		c0.2,0.5-3.5-2.9-7.4-3.6c-4.1-0.7-5.9,4.7-5.9,4.7s-3.7-5-7.8-4.8c-3.6,0.2-7.6,3.7-7.6,3.7s-3.5-3.2-9.2-2.7
		C65.2,45.3,61.2,48.4,61.2,48.4z"/>
	<path class="st2" d="M82.8,43.3c-0.1,0.5-0.3,19.3,0.2,23c0.4,3.4,4.3,3.9,5.7,2.9c0.6-0.5,1.6-1.2,2.1-3.1c0.3-1.3-1.5-2-2.3-0.3
		c-0.4,0.8-0.6,2.1-2.2,1.6c-1.8-0.6-1.4-5.3-1.4-11.6c0-7.8,0.1-12.8,0.1-12.8L82.8,43.3z"/>
	<path class="st2" d="M17.6,96c-0.7,0-2.1-0.4-2.4-2.1c-0.3-1.7-1-5.8-3.7-5.1S7.4,91,7.1,99.1c-0.3,8.1-0.2,14.4,2.9,15.4
		c3.1,1,5.1-2.2,4.9-3.4c-0.2-1.2-0.9-1.6-1.8-1.5c-1,0.1-2.7,0.2-3-0.8c-0.2-1-0.6-3.7,1.4-4.8c2.1-1.2,7.1-0.3,7.9,0.2
		c1.5,1,2.4,3.2,2,7.1c-0.4,3.7-1.5,10.7-10.5,10.7c-10,0-10.2-9.4-10.6-13.5c-0.4-4.2-0.6-12,1.2-17.4c1.9-5.8,4.6-9.9,13-9
		c8.4,0.9,8,10.7,7.4,12.1C21,96,18.9,96.1,17.6,96z"/>
	<path class="st2" d="M73.9,118.6c-0.1-2.4-1.2-12.5-1.5-17.8c-0.2-3.9-1.4-6.5,3.6-7.2s6.9,0.9,7.5-1.7c0.6-2.6-0.2-4.6-2.4-4.4
		c-2.2,0.2-7.9,1.4-8.1,0.8c-0.2-0.5,0-1.3-1.1-1.6c-1.1-0.3-5.6-0.5-6,0.8c-0.3,1.3-0.6,12.3,0,21.9c0,0,0,9.5,1.6,11.9
		C68.6,122.6,74,121.9,73.9,118.6z"/>
	<path class="st2" d="M106.8,93.6c0,0-2.4,3.7-4.5,0.6c-2-3.1-7.9-12.6-9.5-13.3c-1.5-0.6-5.2,1.3-4.5,3.4
		c0.5,1.6,11.5,14.5,11.9,19.1c0.4,4.7-1.8,17.1,0.3,17.7c2.1,0.7,5.5,0.9,5.4-1.2c-0.1-2.1-0.7-16.2,1-17.9
		c1.7-1.6,12.9-11.5,12.9-14c0-1.8-2.3-4.7-4.4-3.2C114.1,85.8,107.5,92.8,106.8,93.6z"/>
	<path class="st2" d="M133.1,87.1c-9.1-0.7-12.2,5.1-12,17.1c0.2,12.1,2.5,17.8,10.1,17.5c7.6-0.4,9.6-4,9.3-5.2
		c-0.3-1.2-2.2-5.6-4.6-3.9c-2.4,1.7-2.4,1.7-2.4,1.7s-4.6,2.6-5.4-0.6c-0.8-3.1-1.4-5,0.3-5.5c1.8-0.5,12.3,2.5,13.3-0.4
		C142.9,105.1,142.2,87.9,133.1,87.1z M130,102.1c-2.7,0-2.4-1.5-2.4-3.5c0-3.3,1.6-5.4,3.8-5.5c2.4-0.1,4.2,2.8,4.3,6.3
		C135.7,103,132.8,102.1,130,102.1z"/>
	<path class="st2" d="M58.7,93.3c-0.6,0.2-1.6,0.9-2.1-0.1c-0.4-1.1-2.7-6.7-9-6c-6.3,0.7-8.5,5-8.6,15.3
		c-0.1,10.3-0.2,19.4,8.6,19.3c8.7-0.1,10.9-4.4,11.1-10.1c0.2-5.7-0.4-9.4,0.3-10.4c0.7-1,2.6-1.2,2.6-2.6
		C61.6,96.9,59.7,93,58.7,93.3z M46.3,95.9c0.2-1.5,1.9-3.5,3.7-1.9c1.8,1.6,1.4,3.3,0.5,3.5c-1,0.2-2.2,0.3-2.8,0.2
		C47.1,97.7,46.1,97.4,46.3,95.9z M52.4,109.8c-0.1,2.4,0,6.8-3.8,6.5c-3.8-0.2-3.3-6-3.3-9.4c0-3.4,0.7-3.5,2.2-3.3
		c1.5,0.2,3.2-0.5,4.2-0.2C53.1,104,52.5,107.4,52.4,109.8z"/>
	<path class="st2" d="M65.1,16.8c0,0-6.2-7-5.7-0.9c0.5,6.2,5.8,9.4,7.1,7.7C67.8,22,65.1,16.8,65.1,16.8z"/>
	<path class="st2" d="M76.8,2.8c0,0-2.7-4.4-4.3-2.2c-1.6,2.1,1.5,7.6,4.3,9.2C79.5,11.3,80,8.6,79,7C77.9,5.4,76.8,2.8,76.8,2.8z"
		/>
	<path class="st2" d="M93.5,9.1c-0.4,0.1-3.7,2.5-1.5,5.9c2.2,3.4,6.8,3.6,6,1C97.3,13.3,95.1,8.7,93.5,9.1z"/>
	<path class="st2" d="M112.1,24.1c0,0-3.7-3-4.5,0.5c-0.7,3.5,1.5,8.7,4.9,9C115.9,33.9,114.2,27.8,112.1,24.1z"/>
</g>
</svg>
