<?xml version="1.0" encoding="utf-8"?>
<!-- Generator: Adobe Illustrator 21.1.0, SVG Export Plug-In . SVG Version: 6.00 Build 0)  -->
<svg version="1.1" id="Layer_1" xmlns="http://www.w3.org/2000/svg" xmlns:xlink="http://www.w3.org/1999/xlink" x="0px" y="0px"
	 viewBox="0 0 82.9 69" style="enable-background:new 0 0 82.9 69;" xml:space="preserve">
<style type="text/css">
	.st0{fill:#5CC5C8;}
	.st1{fill:#DBD93D;}
	.st2{fill:#576572;}
	.st3{fill:#FFFFFF;}
	.st4{fill-rule:evenodd;clip-rule:evenodd;fill:#FFFFFF;}
	.st5{fill-rule:evenodd;clip-rule:evenodd;fill:#576572;}
	.st6{fill:#747474;}
	.st7{fill:#BFBFBF;}
	.st8{fill:none;stroke:#BFBFBF;stroke-width:1.3;stroke-miterlimit:10;}
</style>
<g>
	<g>
		<path class="st7" d="M32,48.7h1.8c1.7,0,2.7,0.8,2.7,2.1c0,0.9-0.6,1.5-1.3,1.7v0c1.3,0.1,1.9,1,1.9,2.1c0,1.5-1.2,2.3-2.7,2.3H32
			V48.7z M33.8,49.6H33v2.6h0.9c1,0,1.6-0.5,1.6-1.3C35.5,50,34.8,49.6,33.8,49.6z M34.3,53.1H33V56h1.4c1.1,0,1.6-0.6,1.6-1.4
			C36.1,53.7,35.4,53.1,34.3,53.1z"/>
		<path class="st7" d="M43,49.6h-3.5v2.6h3.4v0.9h-3.4V56h3.6v0.9h-4.6v-8.2H43V49.6z"/>
		<path class="st7" d="M52.3,50.8h-1.1c-0.4-0.8-1.3-1.5-2.6-1.5c-1.6,0-3.2,1.2-3.2,3.5c0,2,1.3,3.5,3.2,3.5c1.3,0,2.3-0.7,2.7-1.6
			h1.1c-0.7,1.5-1.9,2.5-3.9,2.5c-2.5,0-4.2-1.9-4.2-4.4c0-2.5,1.8-4.3,4.2-4.3C50.8,48.5,51.9,49.8,52.3,50.8z"/>
		<path class="st7" d="M25.1,68.9h-1l-0.5-4.8c-0.1-0.6-0.1-1.6-0.2-2.2h0c-0.2,0.6-0.5,1.5-0.7,2.2l-1.6,4.8h-0.9L18.7,64
			c-0.2-0.6-0.5-1.4-0.7-2.1h0c0,0.7-0.1,1.4-0.2,2l-0.5,4.9h-1l0.9-8.2h1.2l1.8,5.3c0.1,0.4,0.3,1.1,0.4,1.5h0
			c0.1-0.4,0.3-1.1,0.5-1.5l1.8-5.3h1.2L25.1,68.9z"/>
		<path class="st7" d="M29,60.7h0.9l3.2,8.2H32l-0.8-2.2h-3.6l-0.9,2.2h-1.1L29,60.7z M27.9,65.8h3L30,63.5
			c-0.2-0.4-0.4-1.2-0.6-1.7h0c-0.2,0.5-0.4,1.2-0.6,1.7L27.9,65.8z"/>
		<path class="st7" d="M35.6,67.1c-0.1,1.3-0.6,1.8-1.6,1.8c-0.3,0-0.5-0.1-0.6-0.1V68c0.1,0,0.3,0.1,0.5,0.1c0.4,0,0.7-0.2,0.7-1
			l0.5-6.4h5.2v8.2h-1v-7.3H36L35.6,67.1z"/>
		<path class="st7" d="M42,60.7h1v3.5h1.4c1.5,0,2.7,0.8,2.7,2.3c0,1.5-1.2,2.4-2.7,2.4H42V60.7z M44.3,65.1H43V68h1.4
			c1.1,0,1.6-0.6,1.6-1.5C46,65.6,45.4,65.1,44.3,65.1z M48.2,60.7h1v8.2h-1V60.7z"/>
		<path class="st7" d="M51,60.7h1V68h3v-7.3h1V68h3v-7.3h1v8.2H51V60.7z"/>
		<path class="st7" d="M64.2,60.7h0.9l3.2,8.2h-1.1l-0.8-2.2h-3.6l-0.9,2.2h-1.1L64.2,60.7z M63.1,65.8h3l-0.9-2.3
			c-0.2-0.4-0.4-1.2-0.6-1.7h0c-0.2,0.5-0.4,1.2-0.6,1.7L63.1,65.8z"/>
	</g>
</g>
<g>
	<g>
		<path class="st7" d="M72.1,33v4.1h-1v-8.2h1V33l3.9-4.1h1.3l-4,4l4.2,4.2h-1.4L72.1,33z"/>
		<path class="st7" d="M78.3,28.9h4.6v0.9h-3.6v7.3h-1V28.9z"/>
	</g>
</g>
<g>
	<g>
		<path class="st7" d="M0,36h0.2c0.6,0,1.5-0.5,1.6-2.6l0.3-4.7h5.2V36h1v3h-1v-2.1H1V39H0V36z M6.3,29.7H3.1l-0.3,3.8
			c-0.1,1.2-0.4,2.1-0.9,2.6h4.4V29.7z"/>
		<path class="st7" d="M13.5,28.5c2.7,0,4.3,2.1,4.3,4.4c0,2.4-1.9,4.4-4.3,4.4c-3,0-4.3-2.3-4.3-4.4C9.1,30.5,11,28.5,13.5,28.5z
			 M13.5,36.3c1.9,0,3.3-1.5,3.3-3.5c0-2-1.3-3.5-3.3-3.5c-1.9,0-3.3,1.5-3.3,3.5C10.2,34.8,11.6,36.3,13.5,36.3z"/>
	</g>
</g>
<g>
	<g>
		<path class="st7" d="M26.3,2.2H21V0h7.6v36.2h-2.4V2.2z"/>
		<path class="st7" d="M48.8,13.8c1.8-0.5,4.2-0.7,5.7-0.7c7.8,0,12.8,4.6,12.8,12c0,5.8-3.6,12.3-11.9,12.3
			c-7.3,0-11.1-4.4-11.6-9.7h2.4c0.4,4.2,3.7,7.7,9.3,7.7c5.1,0,9.1-4,9.1-10.1c0-6.2-3.6-10.1-10.2-10.1c-2.3,0-5.4,0.6-8.2,1.5
			L47.8,0h17v2.2h-15L48.8,13.8z"/>
	</g>
</g>
</svg>
