<?xml version="1.0" encoding="utf-8"?>
<!-- Generator: Adobe Illustrator 21.1.0, SVG Export Plug-In . SVG Version: 6.00 Build 0)  -->
<svg version="1.1" id="Layer_1" xmlns="http://www.w3.org/2000/svg" xmlns:xlink="http://www.w3.org/1999/xlink" x="0px" y="0px"
	 viewBox="0 0 78.7 72.2" style="enable-background:new 0 0 78.7 72.2;" xml:space="preserve">
<style type="text/css">
	.st0{fill:#5CC5C8;}
	.st1{fill:#DBD93D;}
	.st2{fill:#576572;}
	.st3{fill:#FFFFFF;}
	.st4{fill-rule:evenodd;clip-rule:evenodd;fill:#FFFFFF;}
	.st5{fill-rule:evenodd;clip-rule:evenodd;fill:#576572;}
	.st6{fill:#747474;}
	.st7{fill:#BFBFBF;}
	.st8{fill:none;stroke:#BFBFBF;stroke-width:1.3;stroke-miterlimit:10;}
</style>
<g>
	<g>
		<path class="st7" d="M0,35.1l12.6-13.8c3.7-4,6.4-7.3,6.4-11.4c0-4.6-2.8-7.7-8.1-7.7c-4.6,0-7.6,2.9-8.1,8H0.3C0.8,4.1,5,0,11,0
			c7.1,0,10.6,4.6,10.6,9.5c0,5-3.3,8.8-7.3,13.2L2.8,35.1h19.5v2.2H0V35.1z"/>
		<path class="st7" d="M25.4,24.4v-2.1h17.1v2.1H25.4z"/>
		<path class="st7" d="M46.1,9.1c0.5-4.3,4-9.1,10.7-9.1c6.3,0,10.3,4,10.3,9.2c0,4.1-3.3,7.3-7.3,8.2v0.1c4.4,0.7,8.6,4,8.6,9.9
			c0,5.8-3.9,11-11.7,11c-6.9,0-10.7-4.2-11.7-9.9h2.7c1,4.9,4.1,7.6,9.3,7.6c5.9,0,9-4.1,9-8.8c0-4.5-3-8.5-10.3-8.5h-2.1v-2.2H55
			c5.4,0,9.6-2.8,9.6-7.2c0-4.1-2.5-7.2-7.9-7.2s-7.7,3.5-8.2,6.8H46.1z"/>
	</g>
</g>
<g>
	<g>
		<path class="st7" d="M77.7,38.1v-3.8h0c-0.4,0.6-1.2,0.9-2,0.9c-1.7,0-2.6-0.8-2.6-2.8v-2.5h1v2.6c0,1.4,0.7,1.8,1.8,1.8
			c1.1,0,1.8-0.6,1.8-1.9v-2.5h1v8.2H77.7z"/>
	</g>
</g>
<g>
	<g>
		<path class="st7" d="M15.7,49.9h1.8c1.7,0,2.7,0.8,2.7,2.1c0,0.9-0.6,1.5-1.3,1.7v0c1.3,0.1,1.9,1,1.9,2.1c0,1.5-1.2,2.3-2.7,2.3
			h-2.4V49.9z M17.5,50.8h-0.8v2.6h0.9c1,0,1.6-0.5,1.6-1.3C19.1,51.2,18.4,50.8,17.5,50.8z M17.9,54.3h-1.3v2.9h1.4
			c1.1,0,1.6-0.6,1.6-1.4C19.7,54.9,19.1,54.3,17.9,54.3z"/>
		<path class="st7" d="M22.1,49.9h2.4c1.8,0,3,0.8,3,2.5c0,1.6-0.9,2.5-3.1,2.5h-1.3v3.1h-1V49.9z M24.6,50.8h-1.5v3.3h1.4
			c1.5,0,1.9-0.7,1.9-1.6C26.5,51.5,25.9,50.8,24.6,50.8z"/>
		<path class="st7" d="M33.1,50.8h-3.5v2.6H33v0.9h-3.4v2.9h3.6v0.9h-4.6v-8.2h4.5V50.8z"/>
		<path class="st7" d="M43.3,58.1h-1l-0.5-4.8c-0.1-0.6-0.1-1.6-0.2-2.2h0c-0.2,0.6-0.5,1.5-0.7,2.2l-1.6,4.8h-0.9l-1.6-4.9
			c-0.2-0.6-0.5-1.4-0.7-2.1h0c0,0.7-0.1,1.4-0.2,2l-0.5,4.9h-1l0.9-8.2h1.2l1.8,5.3c0.1,0.4,0.3,1.1,0.4,1.5h0
			c0.1-0.4,0.3-1.1,0.5-1.5l1.8-5.3h1.2L43.3,58.1z"/>
		<path class="st7" d="M46.5,54.6c-1-0.2-1.9-1.1-1.9-2.3c0-1.1,0.7-2.4,2.8-2.4h2.4v8.2h-1v-3.4h-1.1l-2.5,3.4H44L46.5,54.6z
			 M47.3,53.8h1.5v-2.9h-1.5c-1.1,0-1.6,0.5-1.6,1.5C45.7,53.1,46.2,53.8,47.3,53.8z"/>
		<path class="st7" d="M4.9,69.2h0.2c0.6,0,1.5-0.5,1.6-2.6L7,61.9h5.2v7.3h1v3h-1v-2.1H5.9v2.1h-1V69.2z M11.2,62.8H7.9l-0.3,3.8
			c-0.1,1.2-0.4,2.1-0.9,2.6h4.4V62.8z"/>
		<path class="st7" d="M18.9,62.8h-3.5v2.6h3.4v0.9h-3.4v2.9H19v0.9h-4.6v-8.2h4.5V62.8z"/>
		<path class="st7" d="M21.7,61.9v4.9c0,0.4,0,1.3,0,1.7h0c0.3-0.5,0.8-1.3,1.7-2.7l2.6-3.9H27v8.2h-1v-4.9c0-0.4,0-1.3,0-1.7h0
			c-0.3,0.5-0.6,1-1.7,2.7l-2.6,3.9h-0.9v-8.2H21.7z M25.7,59.5c0,0.9-0.8,1.6-1.9,1.6c-1.2,0-1.8-0.7-1.9-1.6h0.8
			c0,0.5,0.4,0.8,1.1,0.8c0.7,0,1.1-0.4,1.1-0.8H25.7z"/>
		<path class="st7" d="M36.3,64h-1.1c-0.4-0.8-1.3-1.5-2.6-1.5c-1.6,0-3.2,1.2-3.2,3.5c0,2,1.3,3.5,3.2,3.5c1.3,0,2.3-0.7,2.7-1.6
			h1.1c-0.7,1.5-1.9,2.5-3.9,2.5c-2.5,0-4.2-1.9-4.2-4.4c0-2.5,1.8-4.3,4.2-4.3C34.8,61.6,35.8,63,36.3,64z"/>
		<path class="st7" d="M39.2,62.8h-2.1v-0.9h5.3v0.9h-2.1v7.3h-1V62.8z"/>
		<path class="st7" d="M43.4,61.9h1.8c1.7,0,2.7,0.8,2.7,2.1c0,0.9-0.6,1.5-1.3,1.7v0c1.3,0.1,1.9,1,1.9,2.1c0,1.5-1.2,2.3-2.7,2.3
			h-2.4V61.9z M45.2,62.8h-0.8v2.6h0.9c1,0,1.6-0.5,1.6-1.3C46.9,63.2,46.2,62.8,45.2,62.8z M45.7,66.3h-1.3v2.9h1.4
			c1.1,0,1.6-0.6,1.6-1.4C47.5,66.9,46.8,66.3,45.7,66.3z"/>
		<path class="st7" d="M50.9,61.9v4.9c0,0.4,0,1.3,0,1.7h0c0.3-0.5,0.8-1.3,1.7-2.7l2.6-3.9h0.9v8.2h-1v-4.9c0-0.4,0-1.3,0-1.7h0
			c-0.3,0.5-0.6,1-1.7,2.7l-2.6,3.9h-0.9v-8.2H50.9z"/>
		<path class="st7" d="M59.7,66.6c-1-0.2-1.9-1.1-1.9-2.3c0-1.1,0.7-2.4,2.8-2.4h2.4v8.2h-1v-3.4h-1.1l-2.5,3.4h-1.3L59.7,66.6z
			 M60.5,65.8h1.5v-2.9h-1.5c-1.1,0-1.6,0.5-1.6,1.5C58.8,65.1,59.4,65.8,60.5,65.8z"/>
	</g>
</g>
</svg>
