<?xml version="1.0" encoding="utf-8"?>
<!-- Generator: Adobe Illustrator 21.1.0, SVG Export Plug-In . SVG Version: 6.00 Build 0)  -->
<svg version="1.1" id="Layer_1" xmlns="http://www.w3.org/2000/svg" xmlns:xlink="http://www.w3.org/1999/xlink" x="0px" y="0px"
	 viewBox="0 0 105 78.2" style="enable-background:new 0 0 105 78.2;" xml:space="preserve">
<style type="text/css">
	.st0{fill:#5CC5C8;}
	.st1{fill:#DBD93D;}
	.st2{fill:#576572;}
	.st3{fill:#FFFFFF;}
	.st4{fill-rule:evenodd;clip-rule:evenodd;fill:#FFFFFF;}
	.st5{fill-rule:evenodd;clip-rule:evenodd;fill:#576572;}
	.st6{fill:#747474;}
	.st7{fill:#BFBFBF;}
	.st8{fill:none;stroke:#BFBFBF;stroke-width:1.3;stroke-miterlimit:10;}
</style>
<g>
	<path class="st6" d="M104.5,39.5L94.2,21.3c-3.1-5.7-7.5-5.2-7.5-5.2H75.3v-2.7C75.3,6,69.3,0,61.9,0L13.3,3C6,3.8,3,6.7,2.3,15.2
		L0,50.9c0,7.4,6,13.4,13.4,13.4h0.8c1.1-6.8,7.1-12,14.2-12s13.1,5.2,14.2,12h13.2h6H69c1.1-6.8,7.1-12,14.2-12s13.1,5.2,14.2,12h4
		c1.9,0,3.5-1.6,3.5-3.5V41.3C105,40.6,104.8,40,104.5,39.5z M75.5,41.7V22.7h9.2c0,0,2.5-0.2,4.4,3.5l9,15.4H75.5z"/>
	<circle class="st6" cx="28.4" cy="67.4" r="10.7"/>
	<circle class="st6" cx="83.1" cy="67.4" r="10.7"/>
</g>
</svg>
