<?xml version="1.0" encoding="utf-8"?>
<!-- Generator: Adobe Illustrator 21.1.0, SVG Export Plug-In . SVG Version: 6.00 Build 0)  -->
<svg version="1.1" id="Layer_1" xmlns="http://www.w3.org/2000/svg" xmlns:xlink="http://www.w3.org/1999/xlink" x="0px" y="0px"
	 viewBox="0 0 49 28" style="enable-background:new 0 0 49 28;" xml:space="preserve">
<style type="text/css">
	.st0{fill:#5CC5C8;}
	.st1{fill:#DBD93D;}
	.st2{fill:#576572;}
	.st3{fill:#FFFFFF;}
	.st4{fill-rule:evenodd;clip-rule:evenodd;fill:#FFFFFF;}
	.st5{fill-rule:evenodd;clip-rule:evenodd;fill:#576572;}
	.st6{fill:#747474;}
	.st7{fill:#BFBFBF;}
	.st8{fill:none;stroke:#BFBFBF;stroke-width:1.3;stroke-miterlimit:10;}
</style>
<g>
	<path class="st5" d="M24,27.8h2.9c0,0,0.9-0.1,1.3-0.6c0.4-0.4,0.4-1.3,0.4-1.3s-0.1-3.9,1.8-4.5c1.8-0.6,4.1,3.8,6.6,5.5
		c1.9,1.3,3.3,1,3.3,1l6.5-0.1c0,0,3.4-0.2,1.8-2.9c-0.1-0.2-0.9-2-4.9-5.6c-4.1-3.8-3.6-3.2,1.4-9.8c3-4,4.2-6.5,3.8-7.5
		c-0.4-1-2.6-0.7-2.6-0.7l-7.4,0c0,0-0.5-0.1-1,0.2c-0.4,0.2-0.7,0.8-0.7,0.8S36.2,5.4,34.7,8c-3.3,5.6-4.6,5.9-5.1,5.5
		c-1.2-0.8-0.9-3.2-0.9-5c0-5.4,0.8-7.7-1.6-8.2C26.2,0.2,25.6,0,23.6,0c-2.6,0-4.9,0-6.1,0.6C16.6,1,16,2,16.4,2
		c0.5,0.1,1.6,0.3,2.2,1.1c0.8,1,0.7,3.3,0.7,3.3s0.4,6.4-1,7.1c-1,0.5-2.4-0.6-5.3-5.6c-1.5-2.6-2.6-5.5-2.6-5.5S10.1,2,9.7,1.7
		C9.3,1.3,8.6,1.2,8.6,1.2l-7,0c0,0-1.1,0-1.4,0.5c-0.3,0.4,0,1.2,0,1.2s5.5,12.8,11.7,19.3C17.5,28.2,24,27.8,24,27.8L24,27.8z"/>
</g>
</svg>
