<?xml version="1.0" encoding="utf-8"?>
<!-- Generator: Adobe Illustrator 21.1.0, SVG Export Plug-In . SVG Version: 6.00 Build 0)  -->
<svg version="1.1" id="Layer_1" xmlns="http://www.w3.org/2000/svg" xmlns:xlink="http://www.w3.org/1999/xlink" x="0px" y="0px"
	 viewBox="0 0 243.3 177" style="enable-background:new 0 0 243.3 177;" xml:space="preserve">
<style type="text/css">
	.st0{fill:#5CC5C8;}
	.st1{fill:#DBD93D;}
	.st2{fill:#576572;}
	.st3{fill:#FFFFFF;}
	.st4{fill-rule:evenodd;clip-rule:evenodd;fill:#FFFFFF;}
	.st5{fill-rule:evenodd;clip-rule:evenodd;fill:#576572;}
	.st6{fill:#747474;}
	.st7{fill:#BFBFBF;}
	.st8{fill:none;stroke:#BFBFBF;stroke-width:1.3;stroke-miterlimit:10;}
</style>
<g>
	<path class="st0" d="M47.7,127.9c0,0,0.7-10.1-0.4-13c-0.6-1.6-8-1.8-8.6,1.3c-0.5,3.1-1.3,39.9-1,48.5c0.3,8.6-0.9,10.9,2.9,11.1
		c3.8,0.1,6,0.5,6.4-2.9C47.5,169.3,47.7,127.9,47.7,127.9z"/>
	<path class="st1" d="M233.8,143c0,1.4,0.6,3.7,3.7,4.1c4.2,0.6,6.5-0.3,5.7-5.6c-0.7-5.2-4.5-16.4-17.5-15.2
		c-12.9,1.2-15.8,13.1-11.7,22.3c4.1,9.3,16.4,9.2,17.6,14c1.3,4.8-2.7,5.6-5.1,5.4c-3.3-0.3-4.4-2.4-4.7-5.1
		c-0.3-2.7-0.2-4.7-3.9-4.5c-3.7,0.3-7.7-0.5-3.7,10.2c4,10.8,21.1,9.4,24.9,4c3.8-5.4,4.1-14.5-0.8-18.7
		c-4.4-3.7-14.3-4.9-15.4-9.2c-1.1-4.3,0-10.2,6-9C234,136.8,233.8,140.3,233.8,143z"/>
	<path class="st2" d="M88.7,70.2c0,0,1.2-13.1,6.4-20.9c6-8.9,15-14.3,26.4-14.3c10.8,0,22.1,8,26.6,15c4.9,7.6,5.9,18.7,6.2,19.4
		c0.3,0.7-5.1-4.3-10.8-5.3c-6-1.1-8.5,6.8-8.5,6.8s-5.3-7.3-11.3-6.9c-5.2,0.3-11,5.4-11,5.4s-5.1-4.7-13.4-3.9
		C94.6,65.8,88.7,70.2,88.7,70.2z"/>
	<path class="st2" d="M120.1,62.9c-0.1,0.7-0.5,28,0.2,33.4c0.6,4.9,6.2,5.7,8.3,4.1c0.9-0.7,2.3-1.8,3-4.5c0.5-1.8-2.1-2.9-3.4-0.4
		c-0.6,1.1-0.9,3-3.2,2.3c-2.6-0.8-2.1-7.7-2-16.8c0.1-11.3,0.1-18.6,0.1-18.6L120.1,62.9z"/>
	<path class="st0" d="M25.6,139.3c-1,0-3-0.6-3.4-3s-1.4-8.5-5.3-7.4c-3.9,1.1-6.1,3.1-6.6,14.9c-0.5,11.8-0.3,20.9,4.3,22.3
		c4.6,1.4,7.4-3.1,7.1-4.9c-0.3-1.7-1.3-2.3-2.7-2.2c-1.4,0.1-3.9,0.3-4.3-1.2c-0.4-1.5-0.9-5.3,2-7c3.1-1.8,10.4-0.4,11.5,0.3
		c2.2,1.4,3.5,4.7,2.9,10.3c-0.6,5.4-2.2,15.6-15.2,15.5C1.3,177,1,163.3,0.4,157.4c-0.6-6.1-0.9-17.4,1.8-25.3
		c2.8-8.4,6.7-14.4,18.8-13.1c12.1,1.3,11.6,15.5,10.7,17.6C30.5,139.3,27.5,139.4,25.6,139.3z"/>
	<path class="st0" d="M107.2,172.1c-0.1-3.5-1.8-18.1-2.2-25.8c-0.3-5.7-2-9.5,5.3-10.4s10.1,1.2,10.9-2.5c0.9-3.8-0.2-6.7-3.5-6.4
		c-3.2,0.2-11.4,2-11.7,1.2c-0.3-0.7,0-1.9-1.6-2.3c-1.6-0.5-8.1-0.7-8.6,1.1c-0.5,1.8-0.8,17.9,0,31.7c0,0,0,13.8,2.4,17.2
		C99.6,177.9,107.4,176.8,107.2,172.1z"/>
	<path class="st1" d="M155,135.8c0,0-3.5,5.3-6.5,0.8c-3-4.5-11.4-18.3-13.7-19.3c-2.2-0.9-7.5,1.8-6.5,5c0.7,2.3,16.7,21,17.3,27.8
		c0.6,6.8-2.6,24.8,0.4,25.7c3,1,8,1.2,7.9-1.8c-0.1-3-1-23.5,1.5-25.9c2.5-2.4,18.8-16.6,18.8-20.3c0-2.6-3.4-6.9-6.4-4.7
		C165.6,124.6,155.9,134.7,155,135.8z"/>
	<path class="st1" d="M193.1,126.4c-13.3-1.1-17.7,7.4-17.4,24.9s3.6,25.8,14.7,25.3c11.1-0.5,13.9-5.8,13.5-7.5
		c-0.4-1.7-3.2-8.1-6.7-5.7c-3.4,2.4-3.4,2.4-3.4,2.4s-6.6,3.7-7.8-0.8c-1.2-4.5-2.1-7.2,0.5-7.9c2.5-0.7,17.8,3.6,19.4-0.5
		C207.4,152.5,206.3,127.5,193.1,126.4z M188.7,148.2c-4,0-3.5-2.2-3.4-5c0-4.9,2.3-7.8,5.5-8c3.5-0.2,6.1,4,6.2,9.2
		C197,149.5,192.6,148.2,188.7,148.2z"/>
	<path class="st0" d="M85.1,135.4c-0.8,0.2-2.3,1.4-3-0.2c-0.6-1.6-3.9-9.7-13-8.6c-9.1,1-12.3,7.3-12.5,22.2
		c-0.1,14.9-0.2,28.2,12.4,28c12.6-0.2,15.8-6.4,16.1-14.6s-0.6-13.7,0.4-15.1c1-1.4,3.7-1.7,3.7-3.8
		C89.3,140.7,86.7,135,85.1,135.4z M67.2,139.2c0.3-2.1,2.8-5,5.4-2.7c2.6,2.3,2.1,4.8,0.7,5.1c-1.5,0.3-3.1,0.4-4.1,0.3
		C68.4,141.8,67,141.4,67.2,139.2z M76,159.3c-0.1,3.5,0,9.8-5.5,9.5c-5.5-0.3-4.8-8.7-4.8-13.7c0-4.9,1.1-5,3.2-4.7
		c2.2,0.3,4.6-0.7,6.1-0.2C77.1,150.9,76.2,155.8,76,159.3z"/>
	<path class="st0" d="M94.4,24.4c0,0-9-10.2-8.2-1.3C87,32,94.7,36.7,96.5,34.3C98.4,31.9,94.4,24.4,94.4,24.4z"/>
	<path class="st1" d="M111.4,4.1c0,0-4-6.3-6.3-3.2s2.2,11,6.2,13.3s4.7-1.7,3.2-4C113.1,7.8,111.4,4.1,111.4,4.1z"/>
	<path class="st0" d="M135.7,13.2c-0.6,0.1-5.3,3.6-2.1,8.5c3.2,4.9,9.8,5.2,8.8,1.4C141.3,19.2,138,12.6,135.7,13.2z"/>
	<path class="st1" d="M162.6,35c0,0-5.4-4.4-6.5,0.7c-1.1,5,2.1,12.6,7.1,13.1C168.2,49.2,165.7,40.4,162.6,35z"/>
</g>
</svg>
