<?xml version="1.0" encoding="utf-8"?>
<!-- Generator: Adobe Illustrator 21.1.0, SVG Export Plug-In . SVG Version: 6.00 Build 0)  -->
<svg version="1.1" id="Layer_1" xmlns="http://www.w3.org/2000/svg" xmlns:xlink="http://www.w3.org/1999/xlink" x="0px" y="0px"
	 viewBox="0 0 66.9 49.3" style="enable-background:new 0 0 66.9 49.3;" xml:space="preserve">
<style type="text/css">
	.st0{fill:#5CC5C8;}
	.st1{fill:#DBD93D;}
	.st2{fill:#576572;}
	.st3{fill:#FFFFFF;}
	.st4{fill-rule:evenodd;clip-rule:evenodd;fill:#FFFFFF;}
	.st5{fill-rule:evenodd;clip-rule:evenodd;fill:#576572;}
	.st6{fill:#747474;}
	.st7{fill:#BFBFBF;}
	.st8{fill:none;stroke:#BFBFBF;stroke-width:1.3;stroke-miterlimit:10;}
</style>
<path class="st5" d="M57.7,39.8c-2,0-3.7,1.2-4.4,2.9H21.4c-0.2-0.6-0.5-1.1-1-1.5l2.2-6h36.6l7.6-28.7H15.8l-1.4-4.9
	c0-0.1-0.1-0.3-0.2-0.4C14,0.5,13.4,0,12.6,0H1.8C0.8,0,0,0.8,0,1.8c0,1,0.8,1.8,1.8,1.8h9.5l2.5,8.7c0,0.1,0.1,0.1,0.1,0.2L19.3,34
	l-2.1,5.7c-0.1,0-0.1,0-0.2,0c-2.6,0-4.7,2.1-4.7,4.7s2.1,4.7,4.7,4.7c1.9,0,3.6-1.2,4.3-2.9h32c0.7,1.7,2.4,2.9,4.4,2.9
	c2.6,0,4.7-2.1,4.7-4.7S60.3,39.8,57.7,39.8z"/>
</svg>
