<?xml version="1.0" encoding="utf-8"?>
<!-- Generator: Adobe Illustrator 21.1.0, SVG Export Plug-In . SVG Version: 6.00 Build 0)  -->
<svg version="1.1" id="Layer_1" xmlns="http://www.w3.org/2000/svg" xmlns:xlink="http://www.w3.org/1999/xlink" x="0px" y="0px"
	 viewBox="0 0 98.4 92.4" style="enable-background:new 0 0 98.4 92.4;" xml:space="preserve">
<style type="text/css">
	.st0{fill:#5CC5C8;}
	.st1{fill:#DBD93D;}
	.st2{fill:#576572;}
	.st3{fill:#FFFFFF;}
	.st4{fill-rule:evenodd;clip-rule:evenodd;fill:#FFFFFF;}
	.st5{fill-rule:evenodd;clip-rule:evenodd;fill:#576572;}
	.st6{fill:#747474;}
	.st7{fill:#BFBFBF;}
	.st8{fill:none;stroke:#BFBFBF;stroke-width:1.3;stroke-miterlimit:10;}
</style>
<g>
	<path class="st0" d="M96.6,39.4L76.4,21.9V5.3c0-2.9-2.3-5.2-5.2-5.2h0c-2.9,0-5.2,2.3-5.2,5.2v7.6L52.7,1.3
		c-0.7-0.6-1.6-1-2.4-1.2c-1.6-0.4-3.3,0-4.6,1.1L1.8,39.5c-2.2,1.9-2.4,5.2-0.5,7.3v0c1.9,2.2,5.2,2.4,7.3,0.5L49.1,12l40.6,35.3
		c2.2,1.9,5.5,1.6,7.3-0.5v0C99,44.6,98.7,41.3,96.6,39.4z"/>
	<path class="st0" d="M84.8,48.2L51.1,18.4c-1.7-1.4-3.2,0-3.2,0L13.6,48.2c-0.2,0.2-0.3,0.4-0.3,0.6v42.8c0,0.5,0.4,0.9,0.9,0.9
		h25.9V64.9h18.3v27.5h25.9c0.5,0,0.9-0.4,0.9-0.9V48.8C85.1,48.6,85,48.3,84.8,48.2z"/>
</g>
</svg>
