<?xml version="1.0" encoding="utf-8"?>
<!-- Generator: Adobe Illustrator 21.1.0, SVG Export Plug-In . SVG Version: 6.00 Build 0)  -->
<svg version="1.1" id="Layer_1" xmlns="http://www.w3.org/2000/svg" xmlns:xlink="http://www.w3.org/1999/xlink" x="0px" y="0px"
	 viewBox="0 0 88 71.4" style="enable-background:new 0 0 88 71.4;" xml:space="preserve">
<style type="text/css">
	.st0{fill:#5CC5C8;}
	.st1{fill:#DBD93D;}
	.st2{fill:#576572;}
	.st3{fill:#FFFFFF;}
	.st4{fill-rule:evenodd;clip-rule:evenodd;fill:#FFFFFF;}
	.st5{fill-rule:evenodd;clip-rule:evenodd;fill:#576572;}
	.st6{fill:#747474;}
	.st7{fill:#BFBFBF;}
	.st8{fill:none;stroke:#BFBFBF;stroke-width:1.3;stroke-miterlimit:10;}
</style>
<g>
	<g>
		<path class="st7" d="M0,49.1h1.8c1.7,0,2.7,0.8,2.7,2.1c0,0.9-0.6,1.5-1.3,1.7v0c1.3,0.1,1.9,1,1.9,2.1c0,1.5-1.2,2.3-2.7,2.3H0
			V49.1z M1.8,50.1H1v2.6h0.9c1,0,1.6-0.5,1.6-1.3C3.5,50.4,2.7,50.1,1.8,50.1z M2.3,53.5H1v2.9h1.4C3.5,56.4,4,55.8,4,55
			C4,54.1,3.4,53.5,2.3,53.5z"/>
		<path class="st7" d="M11.4,50.1H7.5v7.3h-1v-8.2h5.9v8.2h-1V50.1z"/>
		<path class="st7" d="M15.2,49.1V54c0,0.4,0,1.3,0,1.7h0c0.3-0.5,0.8-1.3,1.7-2.7l2.6-3.9h0.9v8.2h-1v-4.9c0-0.4,0-1.3,0-1.7h0
			c-0.3,0.5-0.6,1-1.7,2.7l-2.6,3.9h-0.9v-8.2H15.2z"/>
		<path class="st7" d="M23.6,50.1h-2.1v-0.9h5.3v0.9h-2.1v7.3h-1V50.1z"/>
		<path class="st7" d="M27.8,49.1h1v3.5h1.4c1.5,0,2.7,0.8,2.7,2.3c0,1.5-1.2,2.4-2.7,2.4h-2.4V49.1z M30.1,53.5h-1.3v2.9h1.4
			c1.1,0,1.6-0.6,1.6-1.5C31.9,54.1,31.2,53.5,30.1,53.5z M34,49.1h1v8.2h-1V49.1z"/>
		<path class="st7" d="M36.8,49.1h1.8c1.7,0,2.7,0.8,2.7,2.1c0,0.9-0.6,1.5-1.3,1.7v0c1.3,0.1,1.9,1,1.9,2.1c0,1.5-1.2,2.3-2.7,2.3
			h-2.4V49.1z M38.6,50.1h-0.8v2.6h0.9c1,0,1.6-0.5,1.6-1.3C40.3,50.4,39.5,50.1,38.6,50.1z M39.1,53.5h-1.3v2.9h1.4
			c1.1,0,1.6-0.6,1.6-1.4C40.8,54.1,40.2,53.5,39.1,53.5z"/>
		<path class="st7" d="M45.8,49.1h0.9l3.2,8.2h-1.1L48,55.1h-3.6l-0.9,2.2h-1.1L45.8,49.1z M44.7,54.2h3l-0.9-2.3
			c-0.2-0.4-0.4-1.2-0.6-1.7h0c-0.2,0.5-0.4,1.2-0.6,1.7L44.7,54.2z"/>
		<path class="st7" d="M53,53.5h-1.1v3.8h-1v-8.2h1v3.5h1.2c0.3-2.1,2-3.8,4.3-3.8c2.7,0,4.3,2.1,4.3,4.4c0,2.4-1.9,4.4-4.3,4.4
			C54.5,57.6,53.2,55.5,53,53.5z M57.3,56.7c1.9,0,3.3-1.5,3.3-3.5c0-2-1.3-3.5-3.3-3.5c-1.9,0-3.3,1.5-3.3,3.5
			C54,55.2,55.5,56.7,57.3,56.7z"/>
		<path class="st7" d="M63,57.3v-8.2h1v7.3h3v-7.3h1v7.3h3v-7.3h1v7.3h1v3h-1v-2.1H63z"/>
		<path class="st7" d="M75.2,49.1V54c0,0.4,0,1.3,0,1.7h0c0.3-0.5,0.8-1.3,1.7-2.7l2.6-3.9h0.9v8.2h-1v-4.9c0-0.4,0-1.3,0-1.7h0
			c-0.3,0.5-0.6,1-1.7,2.7l-2.6,3.9h-0.9v-8.2H75.2z"/>
		<path class="st7" d="M84.1,51.4c0.2,0.3,0.4,0.6,0.6,0.9h0c0.2-0.3,0.4-0.6,0.6-1l1.4-2.2h1.1l-2.6,3.9l2.7,4.3h-1.2L85.3,55
			c-0.2-0.4-0.4-0.7-0.7-1.1h0c-0.2,0.4-0.5,0.7-0.7,1.1l-1.4,2.3h-1.1l2.7-4.2l-2.6-4h1.2L84.1,51.4z"/>
		<path class="st7" d="M11.6,61.1h1.8c1.7,0,2.7,0.8,2.7,2.1c0,0.9-0.6,1.5-1.3,1.7v0c1.3,0.1,1.9,1,1.9,2.1c0,1.5-1.2,2.3-2.7,2.3
			h-2.4V61.1z M13.4,62.1h-0.8v2.6h0.9c1,0,1.6-0.5,1.6-1.3C15,62.4,14.3,62.1,13.4,62.1z M13.8,65.5h-1.3v2.9H14
			c1.1,0,1.6-0.6,1.6-1.4C15.6,66.1,15,65.5,13.8,65.5z"/>
		<path class="st7" d="M19,65.2v4.1h-1v-8.2h1V65.2l3.9-4.1h1.3l-4,4l4.2,4.2h-1.4L19,65.2z"/>
		<path class="st7" d="M26.9,67.5c-0.1,1.3-0.6,1.8-1.6,1.8c-0.3,0-0.5-0.1-0.6-0.1v-0.9c0.1,0,0.3,0.1,0.5,0.1c0.4,0,0.7-0.2,0.7-1
			l0.5-6.4h5.2v8.2h-1v-7.3h-3.3L26.9,67.5z"/>
		<path class="st7" d="M35.9,61.1h0.9l3.2,8.2h-1.1l-0.8-2.2h-3.6l-0.9,2.2h-1.1L35.9,61.1z M34.8,66.2h3l-0.9-2.3
			c-0.2-0.4-0.4-1.2-0.6-1.7h0c-0.2,0.5-0.4,1.2-0.6,1.7L34.8,66.2z"/>
		<path class="st7" d="M40.6,68.4h0.2c0.6,0,1.5-0.5,1.6-2.6l0.3-4.7h5.2v7.3h1v3h-1v-2.1h-6.3v2.1h-1V68.4z M46.9,62.1h-3.3
			l-0.3,3.8c-0.1,1.2-0.4,2.1-0.9,2.6h4.4V62.1z"/>
		<path class="st7" d="M50.1,61.1h1v3.5h1.4c1.5,0,2.7,0.8,2.7,2.3c0,1.5-1.2,2.4-2.7,2.4h-2.4V61.1z M52.4,65.5h-1.3v2.9h1.4
			c1.1,0,1.6-0.6,1.6-1.5C54.2,66.1,53.5,65.5,52.4,65.5z M56.3,61.1h1v8.2h-1V61.1z"/>
		<path class="st7" d="M59.1,61.1h1v7.3h3v-7.3h1v7.3h3v-7.3h1v8.2h-8.9V61.1z"/>
		<path class="st7" d="M72.3,61.1h0.9l3.2,8.2h-1.1l-0.8-2.2h-3.6L70,69.3H69L72.3,61.1z M71.2,66.2h3l-0.9-2.3
			c-0.2-0.4-0.4-1.2-0.6-1.7h0c-0.2,0.5-0.4,1.2-0.6,1.7L71.2,66.2z"/>
	</g>
</g>
<g>
	<g>
		<path class="st7" d="M33.1,35.1l12.6-13.8c3.7-4,6.4-7.3,6.4-11.4c0-4.6-2.8-7.7-8.1-7.7c-4.6,0-7.6,2.9-8.1,8h-2.6
			C33.9,4.1,38.1,0,44.1,0c7.1,0,10.6,4.6,10.6,9.5c0,5-3.3,8.8-7.3,13.2L35.8,35.1h19.5v2.2H33.1V35.1z"/>
	</g>
</g>
</svg>
